<svg xmlns="http://www.w3.org/2000/svg" height="1024" preserveAspectRatio="none" style="display: block;" version="1.1" viewBox="0 0 2048 2048" width="1024">
<path d="M 0 0 L 2048 0 L 2048 2048 L 0 2048 L 0 0 z" fill="rgb(6,62,63)" transform="translate(0,0)"></path>
<path d="M 1024.35 482.167 C 1036.93 495.765 1051.22 509.107 1064.42 522.234 C 1085.25 543.284 1106.22 564.185 1127.35 584.936 C 1140.02 597.444 1170.85 630.088 1183.44 640.014 L 1406.15 640.132 C 1406.14 712.376 1404.77 788.328 1406.34 860.196 C 1455.21 912.459 1510.23 961.284 1559.69 1013.61 C 1563.79 1013.6 1569.55 1012.95 1572.74 1014.67 C 1589.29 1014.73 1629.05 1010.9 1639.56 1024.66 C 1657.57 1048.21 1644.02 1078.17 1612.74 1079.36 C 1610.21 1081.02 1530.59 1080.25 1519.85 1080.24 C 1513.89 1086.41 1507.07 1092.71 1500.74 1098.53 C 1469 1127.72 1439 1159.63 1406.9 1188.34 L 1406.39 1409.5 C 1332.29 1410.58 1257.94 1409.29 1183.83 1409.98 C 1171.48 1420.29 1152.54 1440.12 1140.48 1452.02 L 1061.18 1530.41 C 1050.09 1541.38 1035.4 1556.84 1023.85 1566.43 C 1007.77 1552.25 991.306 1534.44 975.821 1519.29 C 938.353 1483.02 901.316 1446.3 864.716 1409.15 C 792.416 1411.59 712.239 1409.83 639.101 1410.19 C 639.55 1334.99 639.55 1259.8 639.101 1184.61 C 634.984 1179.16 622.893 1168.14 617.494 1162.89 L 567.639 1114.44 C 559.081 1106.14 541.095 1089.37 534.821 1080.32 C 523.663 1080.33 437.231 1081.03 434.247 1079.54 C 403.224 1078.21 391.595 1044.07 410.746 1023.44 C 422.773 1010.48 467.201 1014.68 484.426 1014.61 C 485.665 1014.42 492.936 1013.26 493.334 1012.84 C 503.201 1002.46 516.477 989.198 526.409 979.346 L 600.05 906.602 C 612.262 894.509 627.756 879.911 639.033 867.421 C 639.501 791.632 639.527 715.841 639.11 640.051 C 714.298 639.712 790.554 640.876 865.507 639.989 C 918.524 588.623 971.373 534.243 1024.35 482.167 z" fill="rgb(226,228,222)" transform="translate(0,0)"></path>
<path d="M 1024.35 482.167 C 1036.93 495.765 1051.22 509.107 1064.42 522.234 C 1085.25 543.284 1106.22 564.185 1127.35 584.936 C 1140.02 597.444 1170.85 630.088 1183.44 640.014 L 1406.15 640.132 C 1406.14 712.376 1404.77 788.328 1406.34 860.196 C 1455.21 912.459 1510.23 961.284 1559.69 1013.61 C 1563.79 1013.6 1569.55 1012.95 1572.74 1014.67 C 1543.67 1015.94 1504.13 1014.63 1474.21 1014.56 C 1472.58 1014.44 1471.01 1014.35 1469.39 1014.16 C 1459.17 1015.3 1447.35 1014.29 1437.03 1014.7 C 1391.94 1016.49 1365.06 1016.35 1345.4 970.354 C 1350.82 961.315 1348.1 901.054 1348.56 885.898 C 1340.55 876.385 1310.77 852.161 1309.14 843.292 C 1299.07 835.99 1279.21 822.684 1268.35 816.901 C 1267.28 822.255 1263.15 842.011 1264.07 845.91 C 1261.6 852.132 1253.84 898.796 1251.97 908.842 C 1249.47 895.885 1242.65 856.531 1239.14 846.024 C 1217.13 854.926 1211.64 873.434 1200.92 893.3 L 1159.53 971.612 C 1112.76 1060.2 1065.51 1148.53 1017.78 1236.6 C 1005.34 1210.83 987.727 1180.64 973.993 1154.81 L 882.119 982.908 L 843.052 909.505 C 836.617 897.376 829.818 883.796 822.646 872.415 C 815.151 860.521 788.406 856.676 776.163 861.818 C 762.858 867.407 752.96 891.948 745.642 903.917 C 731.215 927.514 718.542 952.424 704.464 976.085 C 689.637 1004.41 676.481 1014.8 642.944 1014.45 C 622.102 1014.15 599.327 1014.25 578.427 1014.47 L 484.426 1014.61 C 485.665 1014.42 492.936 1013.26 493.334 1012.84 C 503.201 1002.46 516.477 989.198 526.409 979.346 L 600.05 906.602 C 612.262 894.509 627.756 879.911 639.033 867.421 C 639.501 791.632 639.527 715.841 639.11 640.051 C 714.298 639.712 790.554 640.876 865.507 639.989 C 918.524 588.623 971.373 534.243 1024.35 482.167 z" fill="rgb(6,62,63)" transform="translate(0,0)"></path>
<path d="M 1024.35 482.167 C 1036.93 495.765 1051.22 509.107 1064.42 522.234 C 1085.25 543.284 1106.22 564.185 1127.35 584.936 C 1140.02 597.444 1170.85 630.088 1183.44 640.014 L 1406.15 640.132 C 1406.14 712.376 1404.77 788.328 1406.34 860.196 C 1455.21 912.459 1510.23 961.284 1559.69 1013.61 C 1563.79 1013.6 1569.55 1012.95 1572.74 1014.67 C 1543.67 1015.94 1504.13 1014.63 1474.21 1014.56 C 1472.58 1014.44 1471.01 1014.35 1469.39 1014.16 C 1459.17 1015.3 1447.35 1014.29 1437.03 1014.7 C 1391.94 1016.49 1365.06 1016.35 1345.4 970.354 C 1350.82 961.315 1348.1 901.054 1348.56 885.898 C 1340.55 876.385 1310.77 852.161 1309.14 843.292 C 1313.65 845.851 1318.2 848.348 1322.78 850.783 C 1312.48 832.094 1298.9 814.428 1289.39 796.101 C 1304.43 793.249 1320.45 790.813 1335.61 788.247 L 1341.3 787.323 C 1358.31 784.754 1375.28 781.93 1392.2 778.851 C 1376.38 777.582 1361.3 774.994 1345.64 772.502 C 1347.26 754.747 1346.09 716.436 1345.99 697.185 C 1334.15 697.583 1267.49 696.779 1261.29 698.786 C 1258.53 683.788 1255.73 666.525 1251.87 651.972 C 1250.25 665.484 1246.56 683.634 1244.21 697.29 C 1215.31 696.221 1181.65 696.985 1152.46 697.084 L 988.5 697.703 C 960.653 697.776 921.097 699.005 894.444 697.148 C 868.409 720.594 839.788 753.098 814.24 778.018 C 787.705 803.727 761.456 829.73 735.5 856.023 C 727.782 863.719 705.567 884.545 700.026 891.318 C 700.082 903.026 698.122 969.144 703.733 975.398 C 703.956 975.647 704.221 975.856 704.464 976.085 C 689.637 1004.41 676.481 1014.8 642.944 1014.45 C 622.102 1014.15 599.327 1014.25 578.427 1014.47 L 484.426 1014.61 C 485.665 1014.42 492.936 1013.26 493.334 1012.84 C 503.201 1002.46 516.477 989.198 526.409 979.346 L 600.05 906.602 C 612.262 894.509 627.756 879.911 639.033 867.421 C 639.501 791.632 639.527 715.841 639.11 640.051 C 714.298 639.712 790.554 640.876 865.507 639.989 C 918.524 588.623 971.373 534.243 1024.35 482.167 z" fill="rgb(4,85,82)" transform="translate(0,0)"></path>
<path d="M 1402.18 939.785 C 1416.21 954.026 1467.23 1001.16 1474.21 1014.56 C 1472.58 1014.44 1471.01 1014.35 1469.39 1014.16 C 1454.83 1012.55 1417.92 1013.81 1401.17 1013.67 C 1400.79 994.299 1400.54 958.11 1402.18 939.785 z" fill="rgb(6,62,63)" transform="translate(0,0)"></path>
<path d="M 643.1 945.327 L 642.944 1014.45 C 622.102 1014.15 599.327 1014.25 578.427 1014.47 C 582.404 1004 631.537 958.351 643.1 945.327 z" fill="rgb(6,62,63)" transform="translate(0,0)"></path>
<path d="M 1341.3 787.323 C 1348.29 800.174 1341.85 799.381 1335.61 788.247 L 1341.3 787.323 z" fill="rgb(6,62,63)" transform="translate(0,0)"></path>
<path d="M 704.936 698.172 C 737.261 696.646 779.556 697.855 812.478 697.988 C 794.007 716.527 774.057 735.263 755.283 753.832 C 736.956 772.176 718.528 790.419 699.999 808.559 C 699.79 778.17 698.75 735.148 700.747 704.12 C 700.848 702.545 703.683 699.513 704.936 698.172 z" fill="rgb(6,62,63)" transform="translate(0,0)"></path>
<path d="M 1024.26 564.846 C 1027.73 566.642 1090.21 630.025 1099.96 638.976 L 1026.63 639.174 C 1000.47 639.224 974.305 639.023 948.146 638.571 C 972.149 617.831 1001.2 587.653 1024.26 564.846 z" fill="rgb(6,62,63)" transform="translate(0,0)"></path>
<path d="M 1251.87 651.972 C 1255.73 666.525 1258.53 683.788 1261.29 698.786 C 1267.49 696.779 1334.15 697.583 1345.99 697.185 C 1346.09 716.436 1347.26 754.747 1345.64 772.502 C 1361.3 774.994 1376.38 777.582 1392.2 778.851 C 1375.28 781.93 1358.31 784.754 1341.3 787.323 L 1335.61 788.247 C 1320.45 790.813 1304.43 793.249 1289.39 796.101 C 1298.9 814.428 1312.48 832.094 1322.78 850.783 C 1318.2 848.348 1313.65 845.851 1309.14 843.292 C 1299.07 835.99 1279.21 822.684 1268.35 816.901 C 1267.28 822.255 1263.15 842.011 1264.07 845.91 C 1261.6 852.132 1253.84 898.796 1251.97 908.842 C 1249.47 895.885 1242.65 856.531 1239.14 846.024 C 1239.25 841.399 1234.85 823.181 1233.59 817.648 C 1216.48 828.693 1199.07 839.271 1181.39 849.369 C 1191.99 831.097 1203.35 814.756 1213.59 795.93 C 1188.56 792.332 1138.13 784.883 1115.25 778.82 C 1147.97 774.083 1180.59 768.092 1213.22 763.533 C 1203.22 746.221 1190.31 730.239 1179.33 711.184 C 1198.5 723.66 1214.6 731.976 1234.7 742.519 L 1244.21 697.29 C 1246.56 683.634 1250.25 665.484 1251.87 651.972 z" fill="rgb(176,132,54)" transform="translate(0,0)"></path>
<path d="M 1261.29 698.786 C 1267.49 696.779 1334.15 697.583 1345.99 697.185 C 1346.09 716.436 1347.26 754.747 1345.64 772.502 C 1332.54 770.357 1318.95 768.663 1305.99 766.11 C 1300.85 765.248 1295.73 764.212 1290.66 763.001 C 1302.06 744.86 1313.53 727.88 1325.4 710.04 C 1309.16 720.62 1285.88 734.959 1268.53 743.291 C 1268.11 740.659 1267.58 738.051 1267.18 735.493 L 1266.18 729.492 C 1264.52 719.254 1262.98 709.039 1261.29 698.786 z" fill="rgb(6,62,63)" transform="translate(0,0)"></path>
<path d="M 1347.48 1065.38 C 1367.75 1075.76 1378.11 1078.08 1400.9 1078.91 L 1436.13 1079 L 1554.41 1079.11 C 1569.13 1079.09 1599.12 1078.18 1612.74 1079.36 C 1610.21 1081.02 1530.59 1080.25 1519.85 1080.24 C 1513.89 1086.41 1507.07 1092.71 1500.74 1098.53 C 1469 1127.72 1439 1159.63 1406.9 1188.34 L 1406.39 1409.5 C 1332.29 1410.58 1257.94 1409.29 1183.83 1409.98 C 1171.48 1420.29 1152.54 1440.12 1140.48 1452.02 L 1061.18 1530.41 C 1050.09 1541.38 1035.4 1556.84 1023.85 1566.43 C 1007.77 1552.25 991.306 1534.44 975.821 1519.29 C 938.353 1483.02 901.316 1446.3 864.716 1409.15 C 792.416 1411.59 712.239 1409.83 639.101 1410.19 C 639.55 1334.99 639.55 1259.8 639.101 1184.61 C 634.984 1179.16 622.893 1168.14 617.494 1162.89 L 567.639 1114.44 C 559.081 1106.14 541.095 1089.37 534.821 1080.32 C 523.663 1080.33 437.231 1081.03 434.247 1079.54 C 446.4 1078.39 476.177 1079.23 489.877 1079.23 L 602.383 1079.28 C 636.887 1079.29 667.765 1082.49 700.08 1069.97 C 698.644 1097.61 699.9 1137.13 699.907 1165.5 C 713.52 1175.56 747.341 1208.93 760.93 1221.84 L 891.693 1348.08 L 1153.27 1348 C 1218.77 1287.74 1283.13 1224.48 1348.09 1163.48 C 1347.86 1131.27 1348.61 1097.42 1347.48 1065.38 z" fill="rgb(4,85,82)" transform="translate(0,0)"></path>
<path d="M 1400.9 1078.91 L 1436.13 1079 C 1434.67 1085.79 1407.9 1108.78 1401.02 1114.24 C 1400.88 1102.47 1400.84 1090.69 1400.9 1078.91 z" fill="rgb(6,62,63)" transform="translate(0,0)"></path>
<path d="M 947.752 1409.12 L 1101.37 1408.91 C 1089.2 1422.05 1075.42 1434.9 1062.42 1447.3 C 1049.9 1459.92 1037.1 1472.26 1024.03 1484.3 C 998.065 1459.79 972.635 1434.73 947.752 1409.12 z" fill="rgb(6,62,63)" transform="translate(0,0)"></path>
<path d="M 700.249 1245.48 C 704.657 1247.99 720.95 1264.24 725.465 1268.85 C 752.333 1296.28 782.015 1321.15 809.303 1347.94 C 773.131 1348.19 736.957 1348.15 700.786 1347.83 C 699.469 1338.21 699.913 1319.87 699.914 1309.73 C 699.889 1288.31 700 1266.9 700.249 1245.48 z" fill="rgb(6,62,63)" transform="translate(0,0)"></path>
<path d="M 1345.73 1246.84 C 1348.63 1250.57 1346.21 1326.6 1347.18 1337.66 C 1348.46 1352.27 1317.78 1348.13 1307.13 1348.1 L 1241.3 1347.94 L 1240.5 1346.6 C 1242.94 1342.77 1246.73 1340.53 1249.97 1337.47 C 1281.7 1307.49 1315.05 1277.81 1345.73 1246.84 z" fill="rgb(6,62,63)" transform="translate(0,0)"></path>
<path d="M 612.133 1080.43 C 622.399 1080.27 632.667 1080.22 642.934 1080.28 L 642.954 1110.65 C 639.437 1108.68 615.18 1084.37 612.133 1080.43 z" fill="rgb(6,62,63)" transform="translate(0,0)"></path>
<path d="M 792.015 951.479 C 795.438 956.436 801.173 968.264 804.17 973.959 L 826.842 1016.74 C 862.44 1084.36 898.426 1151.77 934.799 1218.98 L 968.576 1282.46 C 974.52 1293.64 987.49 1321.97 996.961 1327.19 C 1038.26 1349.97 1054.96 1303.54 1068.46 1277.45 C 1077.64 1259.77 1086.94 1242.15 1096.38 1224.6 L 1197.71 1033.55 C 1214.52 1002.11 1233.09 964.688 1251.67 934.983 C 1286.83 989.547 1289.16 1028.08 1347.48 1065.38 C 1348.61 1097.42 1347.86 1131.27 1348.09 1163.48 C 1283.13 1224.48 1218.77 1287.74 1153.27 1348 L 891.693 1348.08 L 760.93 1221.84 C 747.341 1208.93 713.52 1175.56 699.907 1165.5 C 699.9 1137.13 698.644 1097.61 700.08 1069.97 C 748.031 1047.87 764.929 994.964 792.015 951.479 z" fill="rgb(6,62,63)" transform="translate(0,0)"></path>
<path d="M 1268.35 816.901 C 1279.21 822.684 1299.07 835.99 1309.14 843.292 C 1310.77 852.161 1340.55 876.385 1348.56 885.898 C 1348.1 901.054 1350.82 961.315 1345.4 970.354 C 1330.58 944.895 1317.94 916.648 1303.39 890.822 C 1288.99 865.265 1294.99 857.255 1264.07 845.91 C 1263.15 842.011 1267.28 822.255 1268.35 816.901 z" fill="rgb(6,62,63)" transform="translate(0,0)"></path>
<metadata><recraft-signature>{"signed_by": "recraft", "signature_b64": "QGy8n1+VBuqOJkfkZL0+ph04fhs7Sg/dvM2DLW+IWP9u/giYDCiD1XRTIuD8PCpVERrY/s7lc9W7tjInZeWrBQ==", "signing_algo": "Ed25519", "generation_timestamp": 1784181165, "identifier": "54a0fd9e-a2a1-4d5c-8df2-b5502828f320"}</recraft-signature></metadata></svg>